<svg xmlns="http://www.w3.org/2000/svg" viewBox="0 0 1144.81 268.11"><defs><style>.cls-1{fill:none;stroke:#000;stroke-linejoin:round;stroke-width:9.45px;}</style></defs><g id="Layer_1" data-name="Layer 1"><g id="Word"><path d="M536.53,866.32Q520.9,849.4,520.9,817.76V619h40.93v201.7q0,13.39,5.4,19.35c3.58,4,8.75,5.95,15.44,5.95s11.84-2,15.45-5.95,5.39-10.42,5.39-19.35V619H643V817.76q0,31.65-15.63,48.56t-45.4,16.94Q552.14,883.26,536.53,866.32Z" transform="translate(-176.17 -616.07)"/><path d="M672,619h51.36L763.14,775h.74V619h36.47v260.5H758.3L709.18,689.37h-.75V879.54H672Z" transform="translate(-176.17 -616.07)"/><path d="M830.87,619H871.8v260.5H830.87Z" transform="translate(-176.17 -616.07)"/><path d="M902.32,619h62.52q30.49,0,45.77,16.37t15.26,48V815.16q0,31.64-15.26,48t-45.77,16.38H902.32V619ZM964.1,842.32q10,0,15.44-6c3.58-4,5.4-10.42,5.4-19.35V681.56c0-8.94-1.82-15.38-5.4-19.35s-8.75-6-15.44-6H943.26V842.32Z" transform="translate(-176.17 -616.07)"/><path d="M1053.41,619h111.64v37.21h-70.71V725.1h56.2v37.21h-56.2v80h70.71v37.22H1053.41Z" transform="translate(-176.17 -616.07)"/><path d="M1225.34,746.31l-45-127.27h43.17l27.54,84.1h.74L1280,619h38.71l-45,127.27L1321,879.54h-43.17L1248,788.73h-.75l-30.51,90.81h-38.7Z" transform="translate(-176.17 -616.07)"/></g></g><g id="Layer_3" data-name="Layer 3"><polygon class="cls-1" points="104.28 47.84 154.06 134.05 104.28 220.27 54.5 134.06 104.28 47.84"/><polygon class="cls-1" points="54.51 47.84 104.28 134.05 54.5 220.27 4.72 134.06 54.51 47.84"/><polygon class="cls-1" points="129.17 263.38 228.73 263.38 278.5 177.16 178.95 177.16 129.17 263.38"/><polygon class="cls-1" points="104.28 220.28 203.84 220.28 253.62 134.06 154.06 134.06 104.28 220.28"/><polygon class="cls-1" points="129.17 4.72 228.73 4.72 278.5 90.94 178.95 90.94 129.17 4.72"/><polygon class="cls-1" points="104.28 47.84 203.84 47.84 253.62 134.06 154.06 134.06 104.28 47.84"/></g></svg>